<svg xmlns="http://www.w3.org/2000/svg" width="14" height="10" viewBox="0 0 14 10"><defs><style>.a{fill:#bb8c4b;}</style></defs><path class="a" d="M13.606,3.9H2.333A1.268,1.268,0,0,0,1,5.114v7.514A1.315,1.315,0,0,0,2.333,13.9H13.667A1.315,1.315,0,0,0,15,12.628V5.114A1.365,1.365,0,0,0,13.606,3.9Zm0,.809a.23.23,0,0,1,.182.058L7.97,9.565l-5.818-4.8c.061,0,.121-.058.182-.058H13.606Zm0,8.324H2.333a.405.405,0,0,1-.424-.4V5.634l5.818,4.8a.475.475,0,0,0,.3.116.658.658,0,0,0,.3-.116l5.818-4.8v6.994a.578.578,0,0,1-.545.4Z" transform="translate(-1 -3.9)"/></svg>