<svg xmlns="http://www.w3.org/2000/svg" width="20" height="20" viewBox="0 0 20 20"><defs><style>.a{fill:#888;}</style></defs><path class="a" d="M10.5,2.333c2.667,0,3,0,4,.083a5.411,5.411,0,0,1,1.833.333A2.825,2.825,0,0,1,17.5,3.5a2.825,2.825,0,0,1,.75,1.167A4.162,4.162,0,0,1,18.583,6.5c.083,1.083.083,1.333.083,4s0,3-.083,4a5.411,5.411,0,0,1-.333,1.833,3.264,3.264,0,0,1-1.917,1.917,4.162,4.162,0,0,1-1.833.333c-1.083.083-1.333.083-4,.083s-3,0-4-.083a5.411,5.411,0,0,1-1.833-.333A2.825,2.825,0,0,1,3.5,17.5a2.825,2.825,0,0,1-.75-1.167A4.162,4.162,0,0,1,2.417,14.5c-.083-1.083-.083-1.333-.083-4s0-3,.083-4a6.942,6.942,0,0,1,.25-1.917,9.155,9.155,0,0,1,.75-1.167,2.825,2.825,0,0,1,1.167-.75A10.361,10.361,0,0,1,6.5,2.333h4M10.5.5C7.75.5,7.417.5,6.417.583A6.774,6.774,0,0,0,3.917,1,5.362,5.362,0,0,0,1,3.917a6.774,6.774,0,0,0-.417,2.5C.5,7.5.5,7.833.5,10.5c0,2.75,0,3.083.083,4.083A8.14,8.14,0,0,0,1.083,17,4.056,4.056,0,0,0,2.25,18.75,4.61,4.61,0,0,0,4,19.917a8.14,8.14,0,0,0,2.417.5C7.5,20.5,7.833,20.5,10.5,20.5c2.75,0,3.083,0,4.083-.083a8.14,8.14,0,0,0,2.417-.5,4.056,4.056,0,0,0,1.75-1.167A4.61,4.61,0,0,0,19.917,17a8.14,8.14,0,0,0,.5-2.417c.083-1.083.083-1.417.083-4.083,0-2.75,0-3.083-.083-4.083A8.14,8.14,0,0,0,19.917,4,4.056,4.056,0,0,0,18.75,2.25,4.61,4.61,0,0,0,17,1.083a8.14,8.14,0,0,0-2.417-.5C13.583.5,13.25.5,10.5.5" transform="translate(-0.5 -0.5)"/><path class="a" d="M12.5,6.3a6.2,6.2,0,1,0,6.2,6.2,6.231,6.231,0,0,0-6.2-6.2m0,10.2a4,4,0,1,1,4-4,4.012,4.012,0,0,1-4,4M20.3,6.1a1.4,1.4,0,1,1-2.8,0,1.4,1.4,0,1,1,2.8,0" transform="translate(-2.82 -2.18)"/></svg>