<svg xmlns="http://www.w3.org/2000/svg" width="14" height="20" viewBox="0 0 14 20"><defs><style>.a{fill:#bb8c4b;}</style></defs><path class="a" d="M12.106.261A6.887,6.887,0,0,0,5.3,6.962c0,2.188,1.167,5.05,3.4,8.586a43.227,43.227,0,0,0,3.4,4.629c0,.084.1.084.194.084s.194,0,.194-.084c0,0,1.75-2.273,3.4-4.966,2.236-3.7,3.4-6.4,3.4-8.249,0-3.367-3.305-6.7-7.194-6.7Zm3.4,6.869A3.043,3.043,0,0,1,12.3,9.908,3.043,3.043,0,0,1,9.092,7.13,3.109,3.109,0,0,1,12.3,4.269,3.051,3.051,0,0,1,15.508,7.13Z" transform="translate(-5.3 -0.261)"/></svg>